<svg xmlns="http://www.w3.org/2000/svg" version="1.1" xmlns:xlink="http://www.w3.org/1999/xlink" xmlns:svgjs="http://svgjs.dev/svgjs" width="2000" height="550" viewBox="0 0 2000 550"><g transform="matrix(1,0,0,1,-1.2121212121212466,0.9847270481247961)"><svg viewBox="0 0 396 109" data-background-color="#ffffff" preserveAspectRatio="xMidYMid meet" height="550" width="2000" xmlns="http://www.w3.org/2000/svg" xmlns:xlink="http://www.w3.org/1999/xlink"><g id="tight-bounds" transform="matrix(1,0,0,1,0.2400000000000091,0.0585153949570838)"><svg viewBox="0 0 395.52 108.88296921008582" height="108.88296921008582" width="395.52"><g><svg viewBox="0 0 583.8053667926845 160.71617560975608" height="108.88296921008582" width="395.52"><g transform="matrix(1,0,0,1,188.2853667926845,49.6636310421286)"><svg viewBox="0 0 395.52 61.388913525498886" height="61.388913525498886" width="395.52"><g id="textblocktransform"><svg viewBox="0 0 395.52 61.388913525498886" height="61.388913525498886" width="395.52" id="textblock"><g><svg viewBox="0 0 395.52 61.388913525498886" height="61.388913525498886" width="395.52"><g transform="matrix(1,0,0,1,0,0)"><svg width="395.52" viewBox="2.93 -31.74 264.23 41.019999999999996" height="61.388913525498886" data-palette-color="#919591"><path d="M23.73-7.67L23.73-7.67Q23.73-12.01 19.04-14.65L19.04-14.65Q18.12-15.14 13.33-17.24L13.33-17.24Q8.98-19.09 7.86-21.04L7.86-21.04Q7.28-22.12 7.28-23.34L7.28-23.34Q7.28-26.61 10.45-27.88L10.45-27.88Q11.82-28.42 13.48-28.42L13.48-28.42Q17.58-28.42 19.73-25.63L19.73-25.63Q21.14-23.73 21.09-21L21.09-21 22.56-21 22.56-29.54Q21.39-29.54 21.19-28.81L21.19-28.81Q21.09-28.47 21.09-27.88L21.09-27.88Q17.63-29.79 13.28-29.79L13.28-29.79Q8.01-29.79 5.08-26.86L5.08-26.86Q3.13-24.8 3.13-22.07L3.13-22.07Q3.13-17.97 7.71-15.38L7.71-15.38Q8.54-14.94 13.28-12.89L13.28-12.89Q17.68-10.94 18.85-8.94L18.85-8.94Q19.48-7.81 19.48-6.49L19.48-6.49Q19.48-3.08 16.16-1.56L16.16-1.56Q14.6-0.88 12.7-0.88L12.7-0.88Q5.22-0.98 4.39-10.01L4.39-10.01 2.93-10.01 2.93 0.1Q4.1 0.1 4.3-0.59L4.3-0.59Q4.39-0.98 4.39-2L4.39-2Q8.15 0.49 12.94 0.49L12.94 0.49Q18.55 0.49 21.63-2.54L21.63-2.54Q23.73-4.69 23.73-7.67ZM38.18 8.06L34.76 8.06 34.76-2.05Q37.45 0.29 40.96 0.49L40.96 0.49Q45.31 0.49 48.24-2.78L48.24-2.78Q51.07-5.96 51.07-10.84L51.07-10.84Q51.07-16.41 48-19.29L48-19.29Q45.85-21.24 42.77-21.24L42.77-21.24Q38.03-21.24 35.69-17.48L35.69-17.48Q35.1-16.5 34.71-15.43L34.71-15.43 34.47-20.75 27.44-20.75 27.44-19.53 31.1-19.53 31.1 5.13Q31.1 7.37 29.83 7.81L29.83 7.81Q29.1 8.06 27.44 8.06L27.44 8.06 27.44 9.28 39.4 9.28Q39.4 8.2 38.67 8.11L38.67 8.11Q38.47 8.06 38.18 8.06L38.18 8.06ZM41.21-19.29L41.21-19.29Q45.46-19.29 46.58-13.96L46.58-13.96Q46.92-12.35 46.92-10.35L46.92-10.35Q46.92-3.17 43.06-1.27L43.06-1.27Q41.94-0.73 40.62-0.73L40.62-0.73Q36.86-0.73 35.45-4.69L35.45-4.69Q34.71-6.69 34.71-9.42L34.71-9.42Q34.71-15.77 37.99-18.21L37.99-18.21Q39.45-19.29 41.21-19.29ZM72.11 0.49L72.11 0.49Q75.87 0.49 76.26-4.05L76.26-4.05Q76.31-4.35 76.31-4.59L76.31-4.59 75.04-4.64Q74.7-1.07 73.14-1.03L73.14-1.03Q71.87-1.12 71.82-3.56L71.82-3.56 71.82-13.87Q71.82-20.85 64.84-21.24L64.84-21.24Q64.4-21.24 63.96-21.24L63.96-21.24Q58.49-21.24 56.64-18.7L56.64-18.7Q56.05-17.87 56.05-17.04L56.05-17.04Q56.05-15.53 57.47-15.28L57.47-15.28Q57.71-15.23 57.95-15.23L57.95-15.23Q59.08-15.23 59.61-16.65L59.61-16.65Q60.3-18.46 60.54-18.8L60.54-18.8Q61.47-20.02 63.42-20.02L63.42-20.02Q68.01-19.73 68.16-14.99L68.16-14.99 68.16-11.91Q56.68-11.91 55.02-7.13L55.02-7.13Q54.73-6.2 54.73-5.13L54.73-5.13Q54.73-1.42 58-0.05L58-0.05Q59.32 0.49 60.79 0.49L60.79 0.49Q64.35 0.49 66.79-1.95L66.79-1.95Q67.67-2.88 68.11-3.91L68.11-3.91Q68.7 0.44 72.11 0.49ZM62.4-1.46L62.4-1.46Q59.42-1.46 58.74-4.44L58.74-4.44Q58.59-5.13 58.59-5.96L58.59-5.96Q58.59-9.23 62.35-10.11L62.35-10.11Q64.35-10.55 68.16-10.6L68.16-10.6 68.16-6.69Q67.43-3.32 64.59-1.95L64.59-1.95Q63.47-1.46 62.4-1.46ZM88.96-1.22L88.96-1.22 85.44-1.22 85.44-10.94Q85.44-15.38 88.18-18.07L88.18-18.07Q89.25-19.09 89.98-19.14L89.98-19.14Q90.81-19.14 91.5-17.92L91.5-17.92Q92.28-16.55 92.96-16.36L92.96-16.36Q93.25-16.26 93.55-16.26L93.55-16.26Q95.01-16.26 95.4-17.68L95.4-17.68Q95.5-17.97 95.5-18.26L95.5-18.26Q95.5-20.46 93.25-20.95L93.25-20.95Q92.77-21.04 92.33-21.04L92.33-21.04Q89.4-21.04 87.1-18.55L87.1-18.55Q86.03-17.38 85.39-15.92L85.39-15.92 85.2-20.75 78.12-20.75 78.12-19.53 81.78-19.53 81.78-4.15Q81.78-1.9 80.51-1.46L80.51-1.46Q79.78-1.22 78.12-1.22L78.12-1.22 78.12 0 90.18 0Q90.18-1.07 89.45-1.17L89.45-1.17Q89.25-1.22 88.96-1.22ZM106.78-1.22L106.78-1.22 104.58-1.22 104.58-8.45 107.27-10.94 114.15 0 120.64 0Q120.64-1.07 119.91-1.17L119.91-1.17Q119.72-1.22 119.42-1.22L119.42-1.22 117.67-1.22 109.8-13.33 114.39-17.63Q116.1-19.24 116.98-19.43L116.98-19.43Q117.37-19.53 117.86-19.53L117.86-19.53Q118.94-19.53 119.03-20.26L119.03-20.26Q119.08-20.51 119.08-20.75L119.08-20.75 110.78-20.75 110.78-19.53 114.44-19.53 104.58-10.4 104.58-31.74 97.26-31.74 97.26-30.52 100.92-30.52 100.92-4.15Q100.92-1.9 99.65-1.46L99.65-1.46Q98.92-1.22 97.26-1.22L97.26-1.22 97.26 0 108 0Q108-1.07 107.27-1.17L107.27-1.17Q107.07-1.22 106.78-1.22ZM131.73-1.22L131.73-1.22 129.09-1.22 129.09-31.74 121.76-31.74 121.76-30.52 125.43-30.52 125.43-4.15Q125.43-1.9 124.16-1.46L124.16-1.46Q123.43-1.22 121.76-1.22L121.76-1.22 121.76 0 132.95 0Q132.95-1.07 132.21-1.17L132.21-1.17Q132.02-1.22 131.73-1.22ZM146.42-20.02L146.42-20.02Q149.84-20.02 150.96-17.14L150.96-17.14Q151.35-16.21 151.35-15.14L151.35-15.14Q151.35-12.7 149.01-12.16L149.01-12.16Q147.79-11.91 145.54-11.96L145.54-11.96 140.37-12.11Q140.61-17.72 144.03-19.43L144.03-19.43Q145.15-20.02 146.42-20.02ZM154.92-4.69L154.92-4.69 153.7-5.13Q151.99-1.42 148.18-0.93L148.18-0.93Q147.69-0.88 147.25-0.88L147.25-0.88Q142.12-0.88 140.81-6.98L140.81-6.98Q140.41-8.69 140.37-10.74L140.37-10.74 146.23-10.64Q152.18-10.55 153.89-11.77L153.89-11.77Q155.21-12.74 155.21-14.55L155.21-14.55Q155.21-17.87 151.84-19.82L151.84-19.82Q149.45-21.24 146.32-21.24L146.32-21.24Q140.22-21.24 137.58-16.16L137.58-16.16Q136.22-13.53 136.22-10.21L136.22-10.21Q136.22-4.15 140.56-1.22L140.56-1.22Q143.15 0.49 146.47 0.49L146.47 0.49Q151.74 0.49 154.23-3.32L154.23-3.32Q154.62-4 154.92-4.69ZM184.99 0L185.38 0 195.05-28.03 197.49-28.03 197.49-29.3 189.58-29.3 189.58-28.03 193.49-28.03 185.82-4.98 177.96-28.03 181.92-28.03 181.92-29.3 173.52-29.3 176.84-19.92 171.71-5.08 163.46-28.03 167.41-28.03 167.41-29.3 156.67-29.3 156.67-28.03 159.55-28.03 168.54-2.93Q169.51-0.15 170.3 0.15L170.3 0.15Q170.59 0.24 170.88 0.24L170.88 0.24 171.27 0.24 177.62-17.68 182.84-2.93Q183.72-0.44 184.26-0.15L184.26-0.15Q184.55 0 184.99 0L184.99 0ZM216.58 0.49L216.58 0.49Q220.34 0.49 220.73-4.05L220.73-4.05Q220.78-4.35 220.78-4.59L220.78-4.59 219.51-4.64Q219.17-1.07 217.61-1.03L217.61-1.03Q216.34-1.12 216.29-3.56L216.29-3.56 216.29-13.87Q216.29-20.85 209.31-21.24L209.31-21.24Q208.87-21.24 208.43-21.24L208.43-21.24Q202.96-21.24 201.1-18.7L201.1-18.7Q200.52-17.87 200.52-17.04L200.52-17.04Q200.52-15.53 201.93-15.28L201.93-15.28Q202.18-15.23 202.42-15.23L202.42-15.23Q203.54-15.23 204.08-16.65L204.08-16.65Q204.77-18.46 205.01-18.8L205.01-18.8Q205.94-20.02 207.89-20.02L207.89-20.02Q212.48-19.73 212.63-14.99L212.63-14.99 212.63-11.91Q201.15-11.91 199.49-7.13L199.49-7.13Q199.2-6.2 199.2-5.13L199.2-5.13Q199.2-1.42 202.47-0.05L202.47-0.05Q203.79 0.49 205.25 0.49L205.25 0.49Q208.82 0.49 211.26-1.95L211.26-1.95Q212.14-2.88 212.58-3.91L212.58-3.91Q213.16 0.44 216.58 0.49ZM206.86-1.46L206.86-1.46Q203.89-1.46 203.2-4.44L203.2-4.44Q203.06-5.13 203.06-5.96L203.06-5.96Q203.06-9.23 206.82-10.11L206.82-10.11Q208.82-10.55 212.63-10.6L212.63-10.6 212.63-6.69Q211.89-3.32 209.06-1.95L209.06-1.95Q207.94-1.46 206.86-1.46ZM230.3-0.83L230.3-0.83Q233.67-0.83 234.84-2.88L234.84-2.88Q235.28-3.61 235.28-4.49L235.28-4.49Q235.28-6.54 232.3-8.01L232.3-8.01Q231.67-8.35 230.2-8.98L230.2-8.98Q226.2-10.64 224.88-12.11L224.88-12.11Q223.46-13.72 223.46-15.87L223.46-15.87Q223.46-19.24 227.17-20.61L227.17-20.61Q228.88-21.24 230.89-21.24L230.89-21.24Q234.11-21.24 236.45-19.87L236.45-19.87Q236.45-21.29 237.14-21.48L237.14-21.48Q237.43-21.53 237.77-21.53L237.77-21.53 237.77-15.43 236.5-15.43Q236.4-19.92 231.52-19.97L231.52-19.97Q227.86-19.97 226.98-17.82L226.98-17.82Q226.74-17.24 226.74-16.6L226.74-16.6Q226.74-14.5 229.76-13.04L229.76-13.04Q230.45-12.7 231.91-12.11L231.91-12.11Q235.87-10.5 237.18-9.03L237.18-9.03Q238.6-7.47 238.6-5.32L238.6-5.32Q238.6-1.37 234.4-0.05L234.4-0.05Q232.79 0.49 230.89 0.49L230.89 0.49Q227.37 0.44 224.78-1.27L224.78-1.27Q224.78 0 224.15 0.2L224.15 0.2Q223.85 0.24 223.46 0.24L223.46 0.24 223.46-7.18 224.83-7.18Q224.93-0.88 230.3-0.83ZM251.88-1.22L251.88-1.22 249.44-1.22 249.44-11.77Q249.44-16.21 252.51-18.21L252.51-18.21Q253.78-19.04 255.15-19.04L255.15-19.04Q258.13-19.04 259.3-16.26L259.3-16.26Q259.84-14.94 259.84-13.33L259.84-13.33 259.84-4.15Q259.84-1.9 258.76-1.46L258.76-1.46Q258.08-1.22 256.42-1.22L256.42-1.22 256.42 0 267.16 0Q267.16-1.07 266.43-1.17L266.43-1.17Q266.23-1.22 265.94-1.22L265.94-1.22 263.5-1.22 263.5-13.33Q263.5-18.65 259.98-20.56L259.98-20.56Q258.62-21.24 257.06-21.24L257.06-21.24Q253.44-21.24 251-18.6L251-18.6Q249.98-17.48 249.44-16.06L249.44-16.06 249.44-31.74 242.11-31.74 242.11-30.52 245.78-30.52 245.78-4.15Q245.78-1.9 244.51-1.46L244.51-1.46Q243.77-1.22 242.11-1.22L242.11-1.22 242.11 0 253.1 0Q253.1-1.07 252.37-1.17L252.37-1.17Q252.17-1.22 251.88-1.22Z" opacity="1" transform="matrix(1,0,0,1,0,0)" fill="#919591" class="wordmark-text-0" data-fill-palette-color="primary" id="text-0"></path></svg></g></svg></g></svg></g></svg></g><g><svg viewBox="0 0 173.7929176432388 160.71617560975608" height="160.71617560975608" width="173.7929176432388"><g><svg xmlns="http://www.w3.org/2000/svg" xmlns:xlink="http://www.w3.org/1999/xlink" version="1.1" x="0" y="0" viewBox="13.875876886466575 16.612997938747682 72.20926072155422 66.77600206125231" enable-background="new 0 0 100 100" xml:space="preserve" height="160.71617560975608" width="173.7929176432388" class="icon-icon-0" data-fill-palette-color="accent" id="icon-0"><path d="M85.272 17.49C79.501 18.288 73.028 18.871 66.03 19.232L66.403 17.523A0.748 0.748 0 0 0 65.671 16.613H62.214A0.75 0.75 0 0 0 61.464 17.363V19.429A326 326 0 0 1 38.536 19.429V17.363A0.75 0.75 0 0 0 37.786 16.613H34.33C34.103 16.613 33.889 16.717 33.746 16.893S33.549 17.301 33.598 17.523L33.971 19.232C26.973 18.871 20.5 18.288 14.729 17.49A0.75 0.75 0 0 0 14.524 18.977C20.45 19.795 27.104 20.391 34.303 20.752L34.83 23.166H33.786C33.766 23.166 33.75 23.179 33.73 23.18A0.7 0.7 0 0 0 33.507 23.235C33.476 23.249 33.445 23.256 33.414 23.272A0.7 0.7 0 0 0 33.185 23.476C33.18 23.483 33.172 23.485 33.167 23.491V23.494L33.165 23.495 26.84 32.79A0.75 0.75 0 0 0 27.029 33.825L31.767 37.149A0.74 0.74 0 0 0 32.632 37.148L36.323 34.536C37.178 37.899 37.868 41.503 37.868 44.386 37.868 44.509 37.858 44.643 37.856 44.768A29 29 0 0 1 37.799 46.29 41 41 0 0 1 37.644 48.088C36.729 56.546 33.153 67.628 30.891 74.628A266 266 0 0 0 29.608 78.665 0.75 0.75 0 0 0 29.905 79.504C35.083 83.01 46.033 83.389 50.5 83.389 51.738 83.389 53.225 83.358 54.831 83.268L54.835 83.269 54.874 83.268 54.884 83.266C57.77 83.101 61.045 82.735 64.036 81.986L64.07 81.983C64.083 81.981 64.092 81.972 64.105 81.969 66.371 81.397 68.469 80.605 70.094 79.504A0.75 0.75 0 0 0 70.391 78.665C68.629 72.865 64.282 58.544 63.323 48.141L63.324 48.135A41 41 0 0 1 63.135 44.551L63.132 44.387C63.132 41.621 63.633 38.199 64.27 34.958L67.368 37.149A0.75 0.75 0 0 0 68.233 37.15L72.971 33.826A0.75 0.75 0 0 0 73.16 32.791L66.835 23.496 66.823 23.485 66.817 23.47C66.801 23.449 66.775 23.44 66.756 23.419A0.8 0.8 0 0 0 66.579 23.271C66.546 23.252 66.512 23.244 66.476 23.23A0.8 0.8 0 0 0 66.27 23.181C66.25 23.18 66.233 23.167 66.213 23.167H65.169L65.696 20.753C72.895 20.392 79.55 19.796 85.475 18.978A0.752 0.752 0 0 0 85.272 17.49M50.001 21.139C53.855 21.139 57.701 21.065 61.464 20.93V23.166H38.536V20.93C42.3 21.063 46.148 21.139 50.001 21.139M59.516 24.666C58.417 27.516 54.748 29.571 50.501 29.571S42.585 27.515 41.486 24.666zM35.262 18.113H37.036V23.166H36.365zM35.807 33.064L32.198 35.617 28.498 33.021 33.582 25.55C34.137 27.12 35.069 29.886 35.924 33.012 35.885 33.031 35.842 33.039 35.807 33.064M64.542 80.311L60.233 55.538A0.754 0.754 0 0 0 59.365 54.928 0.75 0.75 0 0 0 58.755 55.796L63.083 80.682C60.623 81.247 57.977 81.559 55.547 81.722L54.743 66.08A0.75 0.75 0 0 0 53.245 66.156L54.05 81.805C52.745 81.865 51.533 81.887 50.501 81.887 48.248 81.887 42.425 81.771 37.32 80.695L41.652 55.796A0.75 0.75 0 0 0 41.042 54.928 0.756 0.756 0 0 0 40.174 55.538L35.858 80.352C34.1 79.898 32.485 79.313 31.212 78.555 31.517 77.576 31.894 76.408 32.319 75.091 34.537 68.226 38.001 57.481 39.049 48.952H47.142C47.844 49.768 48.859 50.295 50.001 50.295S52.158 49.769 52.86 48.952H61.898C62.961 59.144 66.966 72.54 68.792 78.556 67.583 79.287 66.124 79.86 64.542 80.311M39.327 45.808C39.336 45.633 39.348 45.454 39.352 45.285H46.323C46.306 45.345 46.299 45.406 46.285 45.466A4 4 0 0 0 46.173 46.37 4 4 0 0 0 46.286 47.276C46.3 47.335 46.307 47.395 46.323 47.453H39.217C39.253 47.05 39.282 46.657 39.306 46.276zM51.888 44.959C51.94 45.034 51.981 45.113 52.024 45.191 52.049 45.238 52.076 45.285 52.098 45.334A2.5 2.5 0 0 1 52.248 45.77C52.262 45.825 52.276 45.879 52.286 45.935 52.31 46.076 52.328 46.22 52.328 46.369S52.31 46.661 52.286 46.802C52.276 46.858 52.262 46.913 52.248 46.968A3 3 0 0 1 52.098 47.404C52.076 47.452 52.049 47.498 52.024 47.545 51.982 47.623 51.94 47.702 51.889 47.776V47.777C51.466 48.39 50.78 48.795 50.001 48.795S48.535 48.391 48.112 47.777V47.776C48.061 47.702 48.019 47.623 47.977 47.545 47.952 47.498 47.925 47.453 47.903 47.404A3 3 0 0 1 47.822 47.197 2 2 0 0 1 47.753 46.968C47.739 46.912 47.725 46.857 47.715 46.801 47.691 46.66 47.673 46.517 47.673 46.368S47.691 46.075 47.715 45.934C47.725 45.878 47.739 45.824 47.753 45.769A3 3 0 0 1 47.903 45.333C47.925 45.284 47.952 45.237 47.977 45.19 48.02 45.112 48.061 45.033 48.113 44.958 48.536 44.345 49.222 43.94 50.001 43.94S51.465 44.346 51.888 44.959M53.76 47.062C53.8 46.834 53.828 46.603 53.828 46.369A4 4 0 0 0 53.716 45.465C53.701 45.404 53.695 45.344 53.678 45.284H61.647C61.665 45.982 61.703 46.706 61.76 47.452H53.678C53.695 47.394 53.701 47.334 53.715 47.276 53.731 47.205 53.747 47.135 53.76 47.062M67.804 35.617L64.6 33.351A133 133 0 0 1 66.496 25.662L71.505 33.022zM61.647 43.784H52.859C52.158 42.968 51.142 42.441 50.001 42.441S47.844 42.967 47.142 43.784H39.352C39.165 37.168 35.979 27.765 34.862 24.666H39.896C40.971 28.358 45.392 31.071 50.501 31.071S60.031 28.358 61.106 24.666H65.213C64.344 27.71 61.796 37.155 61.647 43.784M62.964 23.166V18.113H64.739L63.636 23.166z" fill="#636365" data-fill-palette-color="accent"></path></svg></g></svg></g></svg></g><defs></defs></svg><rect width="395.52" height="108.88296921008582" fill="none" stroke="none" visibility="hidden"></rect></g></svg></g></svg>