<svg xmlns="http://www.w3.org/2000/svg" version="1.1" xmlns:xlink="http://www.w3.org/1999/xlink" xmlns:svgjs="http://svgjs.dev/svgjs" width="2000" height="1252" viewBox="0 0 2000 1252"><g transform="matrix(1,0,0,1,-1.2121212121212466,-2.01935483870966)"><svg viewBox="0 0 396 248" data-background-color="#ffffff" preserveAspectRatio="xMidYMid meet" height="1252" width="2000" xmlns="http://www.w3.org/2000/svg" xmlns:xlink="http://www.w3.org/1999/xlink"><g id="tight-bounds" transform="matrix(1,0,0,1,0.2400000000000091,0.4000000000000057)"><svg viewBox="0 0 395.52 247.2" height="247.2" width="395.52"><g><svg></svg></g><g><svg viewBox="0 0 395.52 247.2" height="247.2" width="395.52"><g transform="matrix(1,0,0,1,75.54432000000001,83.71498227272727)"><svg viewBox="0 0 244.43135999999996 79.77003545454544" height="79.77003545454544" width="244.43135999999996"><g><svg viewBox="0 0 244.43135999999996 79.77003545454544" height="79.77003545454544" width="244.43135999999996"><g><svg viewBox="0 0 244.43135999999996 79.77003545454544" height="79.77003545454544" width="244.43135999999996"><g><svg viewBox="0 0 244.43135999999996 79.77003545454544" height="79.77003545454544" width="244.43135999999996"><g id="textblocktransform"><svg viewBox="0 0 244.43135999999996 79.77003545454544" height="79.77003545454544" width="244.43135999999996" id="textblock"><g><svg viewBox="0 0 244.43135999999996 79.77003545454544" height="79.77003545454544" width="244.43135999999996"><g transform="matrix(1,0,0,1,0,0)"><svg width="244.43135999999996" viewBox="0.75 -33.7 140.79 45.95" height="79.77003545454544" data-palette-color="#be123c"><path d="M13.65-5.25L12.2 0 0.75-3.15 2.4-9.15 2.4-23.75 0.75-24.2 2.7-31.5 10.55-29.35 9.95-27.2 9.95-8.45 13.65-7.45 13.65-23.75 12-24.2 13.95-31.5 22.75-29.1 21.2-23.3 21.2 4.85 21.2 4.85 19.3 12.25 3.7 8 5.55 0.75 13.65 2.85 13.65-5.25ZM35-7.35L33.05-0.05 24.25-2.45 25.8-8.25 25.8-25 29.95-25 24.75-26.4 26.75-33.7 46.25-28.35 44.6-22.35 44.6-7.8 46.25-7.35 44.3-0.05 35.5-2.45 37.05-8.25 37.05-16.3 36.05-12.6 33.35-13.35 33.35-7.8 35-7.35ZM33.35-24.05L33.35-18.95 37.05-17.95 37.05-23.05 33.35-24.05ZM68.55-5L62.5 0.1 50.5-3.15 54.15-10 66.7-6.55 60-14.55 57.35-12.35 47.75-23.9 51.9-27.45 51.9-27.45 53.35-28.65 53.5-28.8 53.5-28.8 58.9-33.35 70.9-30.1 67.25-23.25 55.45-26.5 61.25-19.5 63.8-21.75 71.2-13 71.2-7.2 68.55-5ZM85.59-5.25L84.14 0 72.69-3.15 74.34-9.15 74.34-23.75 72.69-24.2 74.64-31.5 82.49-29.35 81.89-27.2 81.89-8.45 85.59-7.45 85.59-23.75 83.94-24.2 85.89-31.5 94.69-29.1 93.14-23.3 93.14-8 95.69-7.3 93.74 0 85.59-2.25 85.59-2.3 85.59-5.25ZM107.94-7.3L105.99 0 97.19-2.4 98.74-8.2 98.74-26 97.19-26.4 99.14-33.7 107.94-31.3 106.29-25.1 106.29-19.8 107.29-21.6 109.99-20 109.99-27.5 117.54-30.55 117.54-20.1 112.99-18.25 117.54-15.6 117.54-15.6 117.54-15.6 117.54-7.8 119.19-7.35 117.24-0.05 108.44-2.45 109.99-8.25 109.99-11.3 106.29-13.45 106.29-7.75 107.94-7.3ZM138.69-5.5L136.69 1.8 120.79-2.55 121.64-5.75 121.64-24.1 125.89-24.1 120.69-24.6 121.39-32.1 141.54-30.2 140.84-22.65 129.19-23.8 129.19-18.95 135.89-18.95 134.94-11.4 129.19-11.4 129.19-8.1 138.69-5.5Z" opacity="1" transform="matrix(1,0,0,1,0,0)" fill="#be123c" class="wordmark-text-0" data-fill-palette-color="primary" id="text-0"></path></svg></g></svg></g></svg></g></svg></g></svg></g></svg></g></svg></g><path d="M182.875 77.715L182.875 22.558 384.958 22.558 384.958 224.642 182.875 224.642 182.875 169.485 190.068 169.485 190.068 217.448 377.765 217.448 377.765 29.752 190.068 29.752 190.068 77.715Z" fill="#be123c" stroke="transparent" data-fill-palette-color="tertiary"></path></svg></g><defs></defs></svg><rect width="395.52" height="247.2" fill="none" stroke="none" visibility="hidden"></rect></g></svg></g></svg>